HIERARCHY
ROOT Hips
{
 OFFSET 0.000000 0.000000 0.000000
 CHANNELS 6 Xposition Yposition Zposition Yrotation Xrotation Zrotation
 JOINT Chest
 {
  OFFSET 0.000000 9.585900 0.002600
  CHANNELS 3 Yrotation Xrotation Zrotation
  JOINT Chest2
  {
   OFFSET 0.000000 9.601200 -0.005300
   CHANNELS 3 Yrotation Xrotation Zrotation
   JOINT Chest3
   {
    OFFSET 0.000000 9.561800 0.000000
    CHANNELS 3 Yrotation Xrotation Zrotation
    JOINT Chest4
    {
     OFFSET 0.000000 9.552100 0.000000
     CHANNELS 3 Yrotation Xrotation Zrotation
     JOINT Neck
     {
      OFFSET 0.000000 14.453000 0.000000
      CHANNELS 3 Yrotation Xrotation Zrotation
      JOINT Head
      {
       OFFSET 0.000000 8.936500 -0.011300
       CHANNELS 3 Yrotation Xrotation Zrotation
       End Site
       {
        OFFSET 0.000000 17.073600 -0.006000
       }
      }
     }
     JOINT RightCollar
     {
      OFFSET -2.921100 9.558500 0.000000
      CHANNELS 3 Yrotation Xrotation Zrotation
      JOINT RightShoulder
      {
       OFFSET -13.519700 0.000000 0.000000
       CHANNELS 3 Yrotation Xrotation Zrotation
       JOINT RightElbow
       {
        OFFSET 0.000000 -29.696600 0.000000
        CHANNELS 3 Yrotation Xrotation Zrotation
        JOINT RightWrist
        {
         OFFSET 0.000000 -24.004700 0.000000
         CHANNELS 3 Yrotation Xrotation Zrotation
         End Site
         {
          OFFSET 0.000000 -17.728500 0.000000
         }
        }
       }
      }
     }
     JOINT LeftCollar
     {
      OFFSET 2.921100 9.558500 0.000000
      CHANNELS 3 Yrotation Xrotation Zrotation
      JOINT LeftShoulder
      {
       OFFSET 13.519700 0.000000 0.000000
       CHANNELS 3 Yrotation Xrotation Zrotation
       JOINT LeftElbow
       {
        OFFSET 0.000000 -29.696600 0.000000
        CHANNELS 3 Yrotation Xrotation Zrotation
        JOINT LeftWrist
        {
         OFFSET 0.000000 -24.004700 0.000000
         CHANNELS 3 Yrotation Xrotation Zrotation
         End Site
         {
          OFFSET 0.000000 -17.728500 0.000000
         }
        }
       }
      }
     }
    }
   }
  }
 }
 JOINT RightHip
 {
  OFFSET -7.771700 -0.012900 -0.001300
  CHANNELS 3 Yrotation Xrotation Zrotation
  JOINT RightKnee
  {
   OFFSET 0.000000 -40.869800 0.001200
   CHANNELS 3 Yrotation Xrotation Zrotation
   JOINT RightAnkle
   {
    OFFSET 0.000000 -39.717900 0.002100
    CHANNELS 3 Yrotation Xrotation Zrotation
    JOINT RightToe
    {
     OFFSET 0.000000 -4.965400 11.033500
     CHANNELS 3 Yrotation Xrotation Zrotation
     End Site
     {
      OFFSET 0.000000 -1.423100 5.872300
     }
    }
   }
  }
 }
 JOINT LeftHip
 {
  OFFSET 7.771700 -0.012900 -0.001300
  CHANNELS 3 Yrotation Xrotation Zrotation
  JOINT LeftKnee
  {
   OFFSET 0.000000 -40.869800 0.001200
   CHANNELS 3 Yrotation Xrotation Zrotation
   JOINT LeftAnkle
   {
    OFFSET 0.000000 -39.717900 0.002100
    CHANNELS 3 Yrotation Xrotation Zrotation
    JOINT LeftToe
    {
     OFFSET 0.000000 -4.965400 11.033500
     CHANNELS 3 Yrotation Xrotation Zrotation
     End Site
     {
      OFFSET 0.000000 -1.423100 5.872300
     }
    }
   }
  }
 }
}
MOTION
Frames: 5
Frame Time: 0.008333
-6.268147 54.822319 31.172299 177.087499 -31.043181 -10.835709 0.445991 13.140861 5.927104 0.162628 7.521160 2.206975 0.249575 9.400109 2.768147 0.162608 7.521235 2.206996 5.481331 23.388053 -1.424389 6.344820 -0.366644 -2.819024 1.226112 4.966608 -2.676582 -18.075672 -7.878875 5.548279 -29.109864 -73.386953 43.891718 8.336044 -6.454059 -15.126545 -10.052266 2.983015 -3.751682 5.345927 -2.109735 -0.689273 -76.874123 -70.315456 82.895893 8.464143 -17.377222 -2.040438 -17.788171 -34.428423 8.726763 33.110598 84.788579 28.734990 -0.243006 -17.808588 0.997909 -0.735957 2.011312 -0.331229 -14.934562 -46.392616 17.885492 179.199340 80.119476 174.964686 -0.790472 -18.023829 1.518271 -0.069215 -0.554127 -0.031727
-6.266230 54.843004 31.175822 177.097870 -31.057679 -10.843873 0.463410 13.130917 5.944548 0.172037 7.516171 2.212991 0.261487 9.393847 2.775802 0.172014 7.516244 2.213008 5.422658 23.396582 -1.420336 6.313002 -0.360821 -2.798654 1.179621 5.083512 -2.584956 -18.111789 -8.011241 5.555166 -29.086514 -73.439954 43.784606 8.350204 -6.401052 -15.073058 -10.080207 3.084814 -3.756245 5.323912 -2.183790 -0.695017 -76.977226 -70.247288 83.027083 8.412869 -17.223634 -2.166161 -17.801024 -34.411788 8.726851 33.142190 84.786595 28.770481 -0.260570 -17.810229 0.992507 -0.752011 2.013996 -0.331561 -14.939745 -46.376444 17.882967 179.165968 80.128057 174.934989 -0.790722 -18.013644 1.513548 -0.069266 -0.555638 -0.031504
-6.263456 54.862742 31.178836 177.109473 -31.069417 -10.852086 0.482090 13.127779 5.965643 0.171209 7.516177 2.214130 0.283210 9.390872 2.788673 0.164789 7.515144 2.213258 5.378683 23.387605 -1.405707 6.190840 -0.338020 -2.725673 1.163030 5.187810 -2.490371 -18.142766 -8.133593 5.525857 -29.125195 -73.476368 43.755033 8.366507 -6.375633 -15.068781 -10.086205 3.165922 -3.750295 5.288732 -2.253924 -0.713519 -77.047791 -70.173997 83.135477 8.358826 -17.053874 -2.322876 -17.815057 -34.396338 8.729576 33.163505 84.785100 28.797748 -0.293312 -17.816235 0.991113 -0.736989 2.020054 -0.333471 -14.946627 -46.362809 17.883052 179.117435 80.135437 174.890465 -0.799721 -18.005997 1.508593 -0.068298 -0.555412 -0.030130
-6.259293 54.881659 31.181494 177.122109 -31.078001 -10.863790 0.501772 13.128473 5.992182 0.180375 7.516748 2.221719 0.294785 9.391490 2.798430 0.125264 7.513623 2.199815 5.368094 23.430036 -1.351296 6.091150 -0.309152 -2.710940 1.188748 5.289713 -2.386446 -18.179433 -8.259540 5.476524 -29.247442 -73.488755 43.810160 8.386397 -6.367014 -15.066759 -10.049314 3.236815 -3.727255 5.242371 -2.322714 -0.742221 -77.074826 -70.095117 83.202241 8.307221 -16.875627 -2.502565 -17.826939 -34.385032 8.727829 33.228006 84.782951 28.861911 -0.251510 -17.817023 0.977550 -0.745562 2.020789 -0.332921 -14.957851 -46.352192 17.892826 179.087313 80.140843 174.862434 -0.811142 -17.998899 1.508111 -0.068695 -0.555627 -0.029884
-6.254947 54.899503 31.183856 177.131473 -31.082980 -10.870265 0.521524 13.131295 6.015869 0.199600 7.517742 2.236318 0.296435 9.395489 2.805706 0.135427 7.503954 2.201726 5.294351 23.488490 -1.333866 6.005219 -0.258436 -2.684007 1.173414 5.394983 -2.293545 -18.223297 -8.390102 5.427051 -29.428310 -73.485279 43.909167 8.342179 -6.389827 -15.079701 -10.047986 3.297576 -3.708150 5.206139 -2.393754 -0.786829 -77.079267 -70.024992 83.211014 8.232738 -16.689749 -2.674123 -17.834778 -34.378532 8.727703 33.241583 84.785201 28.880345 -0.240673 -17.822011 0.969892 -0.728962 2.026967 -0.332850 -14.963829 -46.346387 17.902677 179.089088 80.145843 174.862669 -0.821539 -17.991978 1.512462 -0.069050 -0.556241 -0.030295
